<svg width="25" height="25" viewBox="0 0 25 25" fill="none" xmlns="http://www.w3.org/2000/svg">
<g clip-path="url(#clip0)">
<path d="M22.254 16.8278L17.0224 14.3734C17.5419 13.7395 17.9249 13.0026 18.1416 12.2119C19.1382 11.9883 19.8853 11.0967 19.8853 10.0337C19.8853 9.0459 19.2402 8.20557 18.3491 7.9126V5.84912C18.3491 2.62402 15.7251 0 12.5 0C9.2749 0 6.65088 2.62402 6.65088 5.84912V7.9126C5.75977 8.20557 5.11475 9.0459 5.11475 10.0337C5.11475 11.0967 5.86182 11.9883 6.8584 12.2119C7.0751 13.0026 7.45811 13.7395 7.97759 14.3734L2.746 16.8278C1.07788 17.6104 0 19.3066 0 21.1492V25H25V21.1492C25 19.3066 23.9221 17.6104 22.254 16.8278ZM8.11572 5.84912C8.11572 3.43164 10.0825 1.46484 12.5 1.46484C14.9175 1.46484 16.8843 3.43164 16.8843 5.84912V7.1748C15.1152 6.50977 14.3887 5.30469 14.3564 5.24951L13.8252 4.28711L13.1426 5.16113C13.1274 5.18066 11.688 6.97656 8.11572 7.76856V5.84912ZM6.57959 10.0337C6.57959 9.61035 6.92383 9.26611 7.34717 9.26611H8.11572C11.0234 8.68359 12.7856 7.47461 13.6484 6.71875C14.2231 7.35303 15.2617 8.23535 16.8843 8.71875V9.26611H17.6528C18.0762 9.26611 18.4204 9.61035 18.4204 10.0337C18.4204 10.457 18.0762 10.8013 17.6528 10.8013H16.9248L16.8208 11.4102C16.4609 13.5195 14.6436 15.0503 12.5 15.0503C10.3564 15.0503 8.53906 13.5195 8.1792 11.4102L8.0752 10.8013H7.34717C6.92383 10.8013 6.57959 10.457 6.57959 10.0337ZM14.3408 16.2175L12.5 19.0437L10.6593 16.2175C11.2487 16.4128 11.8699 16.5151 12.5 16.5151C13.1301 16.5151 13.7513 16.4129 14.3408 16.2175ZM6.55923 23.5352C6.02075 23.5352 5.58267 23.0971 5.58267 22.5586C5.58267 22.0201 6.02075 21.582 6.55923 21.582C7.0977 21.582 7.53579 22.0201 7.53579 22.5586C7.53579 23.0971 7.0977 23.5352 6.55923 23.5352ZM1.46484 21.1492C1.46484 19.8721 2.21191 18.6964 3.36816 18.154L5.82686 17.0005V20.2296C4.8374 20.5414 4.11787 21.4675 4.11787 22.5586C4.11787 22.9057 4.19116 23.2359 4.32231 23.5352H1.46484V21.1492ZM8.79619 23.5352C8.92734 23.2359 9.00063 22.9057 9.00063 22.5586C9.00063 21.4675 8.2811 20.5414 7.29165 20.2296V16.3133L8.57983 15.7089L12.5 21.7277L16.4202 15.7089L17.6106 16.2674V19.2136C16.4341 19.4934 15.5562 20.5524 15.5562 21.8134V23.5352H8.79619ZM17.021 23.5352V21.8134C17.021 21.1473 17.5629 20.6055 18.229 20.6055H18.4572C19.1232 20.6055 19.6651 21.1474 19.6651 21.8134V23.5352H17.021ZM23.5352 23.5352H21.13V21.8134C21.13 20.5525 20.2521 19.4934 19.0755 19.2136V16.9546L21.6318 18.1539C22.7881 18.6964 23.5352 19.8721 23.5352 21.1492V23.5352Z" fill="#495A75"/>
</g>
<defs>
<clipPath id="clip0">
<rect width="25" height="25" fill="white"/>
</clipPath>
</defs>
</svg>
