<svg width="25" height="25" viewBox="0 0 25 25" fill="none" xmlns="http://www.w3.org/2000/svg">
<g clip-path="url(#clip0)">
<path d="M24.7809 12.1791L14.1527 1.73334C13.2413 0.837488 11.7585 0.837537 10.8472 1.73329L0.218985 12.1791C-0.0695402 12.4627 -0.0735441 12.9264 0.210001 13.2149C0.493546 13.5033 0.957266 13.5074 1.24574 13.2239L2.07284 12.411V20.7507C2.07284 22.5084 3.50292 23.9385 5.26068 23.9385H19.7392C21.497 23.9385 22.927 22.5084 22.927 20.7507V12.411L23.7541 13.2239C23.8968 13.364 24.0822 13.434 24.2675 13.434C24.457 13.434 24.6465 13.3608 24.7899 13.215C25.0734 12.9264 25.0694 12.4627 24.7809 12.1791ZM21.4621 20.7507C21.4621 21.7007 20.6892 22.4737 19.7392 22.4737H5.26068C4.31064 22.4737 3.53769 21.7007 3.53769 20.7507V10.9713L11.874 2.77801C11.9602 2.6932 12.0601 2.62958 12.1667 2.58714C12.4598 2.47054 12.804 2.51424 13.0588 2.71835C13.0819 2.7369 13.1043 2.75677 13.1259 2.77801L21.4622 10.9712V20.7507H21.4621Z" fill="#495A75"/>
<path d="M10.2992 9.61817V11.9752H7.94208C7.53759 11.9752 7.20966 12.3031 7.20966 12.7076V15.6307C7.20966 16.0352 7.53759 16.3631 7.94208 16.3631H10.2992V18.7201C10.2992 19.1246 10.6271 19.4525 11.0316 19.4525H13.9548C14.3593 19.4525 14.6872 19.1246 14.6872 18.7201V16.3631H17.0439C17.4484 16.3631 17.7764 16.0352 17.7764 15.6307V12.7076C17.7764 12.3031 17.4484 11.9752 17.0439 11.9752H14.6872V9.61817C14.6872 9.21367 14.3593 8.88574 13.9548 8.88574H11.0316C10.6271 8.88574 10.2992 9.21367 10.2992 9.61817ZM11.7641 12.7076V10.3506H13.2224V12.7076C13.2224 13.1121 13.5503 13.44 13.9548 13.44H16.3115V14.8983H13.9548C13.5503 14.8983 13.2224 15.2262 13.2224 15.6307V17.9877H11.7641V15.6307C11.7641 15.2262 11.4361 14.8983 11.0316 14.8983H8.6745V13.44H11.0316C11.4361 13.44 11.7641 13.1121 11.7641 12.7076Z" fill="#495A75"/>
</g>
<defs>
<clipPath id="clip0">
<rect width="25" height="25" fill="white"/>
</clipPath>
</defs>
</svg>
