<svg width="25" height="25" viewBox="0 0 25 25" fill="none" xmlns="http://www.w3.org/2000/svg">
<path d="M0 17.6823C0 18.3612 0.674217 18.7562 1.15776 18.3626L5.18466 15.085C5.5224 14.8101 5.92025 14.6648 6.33519 14.6648H15.1917C16.7507 14.6648 18.019 13.2178 18.019 11.4391V0.835657C18.019 0.374152 17.691 0 17.2865 0H2.82724C1.26831 0 0 1.44702 0 3.22575L0 17.6823ZM1.46484 3.22575C1.46484 2.36859 2.07602 1.67131 2.82724 1.67131H16.5541V11.4391C16.5541 12.2963 15.9429 12.9935 15.1917 12.9935H6.33514C5.61347 12.9935 4.92148 13.2463 4.33398 13.7244L1.46484 16.0597V3.22575Z" fill="#F1C40F"/>
<path d="M25 9.70755C25 7.9286 23.7317 6.48135 22.1728 6.48135H20.2163C19.8118 6.48135 19.4839 6.85551 19.4839 7.31701C19.4839 7.77852 19.8118 8.15267 20.2163 8.15267H22.1728C22.924 8.15267 23.5351 8.85022 23.5351 9.70755V22.5412L20.666 20.2061C20.0786 19.728 19.3866 19.4753 18.665 19.4753H9.8081C9.05688 19.4753 8.4458 18.7777 8.4458 17.9204V17.1717C8.4458 16.7102 8.11787 16.336 7.71338 16.336C7.30889 16.336 6.98096 16.7102 6.98096 17.1717V17.9204C6.98096 19.6993 8.24922 21.1466 9.8081 21.1466H18.665C19.0799 21.1466 19.4777 21.2918 19.8154 21.5667L23.8423 24.8441C24.3234 25.2358 25 24.845 25 24.1639V9.70755H25Z" fill="#F1C40F"/>
<path d="M5.26672 6.22359H13.7288C14.1333 6.22359 14.4612 5.84944 14.4612 5.38793C14.4612 4.92643 14.1333 4.55228 13.7288 4.55228H5.26672C4.86223 4.55228 4.5343 4.92643 4.5343 5.38793C4.5343 5.84944 4.86223 6.22359 5.26672 6.22359Z" fill="#F1C40F"/>
<path d="M5.26672 10.1233H13.7288C14.1333 10.1233 14.4612 9.74916 14.4612 9.28765C14.4612 8.82615 14.1333 8.452 13.7288 8.452H5.26672C4.86223 8.452 4.5343 8.82615 4.5343 9.28765C4.5343 9.74916 4.86223 10.1233 5.26672 10.1233Z" fill="#F1C40F"/>
</svg>
